<svg id="Layer_1" xmlns="http://www.w3.org/2000/svg" viewBox="0 0 504 266"><style>.st0{fill:#ff2b00}.st1{fill:#7c878e}</style><path class="st0" d="M82.4 97.3c-.4 0-.8-.3-.8-.8s.3-.8.8-.8l90.6-.8c-.3-2.6-.8-5.2-1.3-7.7l-85.9-.9c-.4 0-.8-.3-.8-.8 0-.4.3-.8.8-.8l85-.8c-.7-2.6-1.5-5.2-2.5-7.7l-79.1-.9c-.4 0-.8-.3-.8-.8 0-.4.3-.8.8-.8l77.8-.8c-12.5-28.9-41.2-49-74.6-49-39.8 0-72.9 28.6-79.9 66.4l116.6-1.6-1.6 5-115.4-1.8c-.5 3.1-.8 6.2-1 9.4l114.5-1.6-1.5 5-113-1.8v2.4c0 2.4.1 4.7.3 7l110.9-1.6-1.5 5-109.2-1.8c.3 3.2.9 6.3 1.5 9.4l105.8-1.6-1.5 5-103.8-1.8c.8 3.2 1.8 6.3 2.9 9.3l99-1.6-1.5 5-96.8-1.8c1.3 3.2 2.8 6.3 4.5 9.4l90.5-1.6-1.5 5-88-1.8c2 3.3 4.1 6.4 6.5 9.4l79.1-1.7-1.6 5-76.3-1.8c14.9 17.6 37.2 28.8 62 28.8 35.7 0 66.1-23 77-55.1l-97.2-.9c-.4 0-.8-.3-.8-.8 0-.4.3-.8.8-.8l98.3-.8c.7-2.5 1.4-5.1 1.8-7.7l-96.7-.9c-.4 0-.8-.3-.8-.8s.3-.8.8-.8l97.2-.9c.4-2.5.6-5.1.7-7.6l-94.6-1c-.4 0-.8-.3-.8-.8 0-.4.3-.8.8-.8l94.7-.8v-.8c0-2.3-.1-4.6-.3-6.9l-90.9-1zm188.7-22.8h-52.5l-5.5 17.4h16.7l-12.5 39.3h21.5l12.4-39.3h14.4zM420 131.2h41.2l4.9-15.4h-20.5l1.8-5.5h20.3l4.6-14.4h-20.4l1.7-5.2H474l5.1-16.2H438zm-8.1-56.7l-7.5 25.1-6.4-25.1h-20.4L363.5 119l-3.7-44.5h-24.3l-26.6 45-5.3-11.6c10-3.1 13.4-8.3 15.2-16.6 1.3-5.9-1.1-16.7-20.4-16.7h-24.3l-18 56.7h21.7l7.1-22.9 7.2 22.9h32.6L330 121h14.2l.6 10.2H381l7.6-25.5 6.4 25.5h20.3l18-56.7h-21.4zm-112 18.6c-.8 2.7-2.5 3.3-6.1 3.3H289l2.3-7.4h4.5c3 .1 4.8 1.7 4.1 4.1zm35.9 14.6l7.5-16.1.3 16.1h-7.8zM490 72.1c-3.1 0-5.8 2.4-5.8 5.7 0 3.3 2.6 5.7 5.8 5.7 3.1 0 5.7-2.4 5.7-5.7s-2.6-5.7-5.7-5.7zm0 10.4c-2.6 0-4.6-2-4.6-4.7s2-4.7 4.6-4.7 4.6 2 4.6 4.7-2.1 4.7-4.6 4.7z"/><path class="st0" d="M492.6 76.3c0-1.3-.8-1.9-2.3-1.9h-2.5V81h1v-2.8h1.1l1.7 2.8h1.1l-1.9-2.9c1-.1 1.8-.6 1.8-1.8zm-3.8 1v-2h1.4c.7 0 1.4.2 1.4 1 0 1-.8 1.1-1.6 1.1l-1.2-.1z"/><path class="st1" d="M17.9 233.1l5.9-26.7h5.7l-5.9 26.7h-5.7zm12.5-3.7c0-.2 0-.8.2-1.3l2.2-9.8h-3.2l1-4.4h3.2l1.2-5.3h5l-1.2 5.3h3.9l-1 4.4h-3.9l-1.9 8.5v.7c0 1 .6 1.7 1.9 1.7.5 0 1.2-.2 1.4-.4l.2 4.1c-.7.5-1.9.8-3.2.8-3.5-.1-5.8-1.5-5.8-4.3zm16.5-12.1l-1.8-1.9c1.4-.6 3.2-1.9 3.9-3.4h-.4c-1.3 0-2.5-.9-2.5-2.6 0-1.9 1.8-3.4 3.6-3.4 1.6 0 3.1 1.1 3.1 3.3 0 3-2.6 6.3-5.9 8zm2.5 12.8l2.8-3.6c1.2 1.4 4 3 6.8 3 1.7 0 2.8-.9 2.8-2 0-2.6-9.8-2-9.8-7.8 0-3.4 2.8-6.5 8-6.5 3.3 0 6.4 1.2 8.2 3.1l-2.6 3.4c-.9-1.2-3.3-2.5-5.7-2.5-1.8 0-2.8.8-2.8 1.8 0 2.4 9.8 1.8 9.8 7.7 0 3.7-3.1 6.8-8.4 6.8-3.5.1-6.9-1.1-9.1-3.4zm47.7 3l2.5-11.2H87l-2.5 11.2h-5.7l5.9-26.7h5.7l-2.3 10.5h12.6l2.3-10.5h5.7l-5.9 26.7h-5.7zm22.4 0l.4-2c-1.4 1.5-3.3 2.4-5.8 2.4-3.3 0-6.4-1.8-6.4-5.6 0-4.4 3.3-7 7.2-7 2.8 0 4.9.8 6.6 2.6l.5-2.2c0-.2.1-.6.1-.9 0-1.8-1.9-2.9-4.5-2.9-2 0-3.8.7-5.4 1.8l-1.2-3.7c2.2-1.6 4.9-2.4 7.6-2.4 4.6 0 8.6 1.7 8.6 6.1 0 .4-.1 1.6-.2 2.1l-2.6 11.6-4.9.1zm1-4.6l.5-2.4c-.8-1.1-2.4-1.8-4.4-1.8-2.2 0-3.7 1.4-3.7 3.2 0 1.7 1.4 2.6 3.5 2.6 1.8 0 3.1-.6 4.1-1.6zm8.4 4.6l4.3-19.3h5.1l-.6 2.5c1.7-1.8 3.8-3 6.8-3l-1.1 5c-.3-.1-1-.2-1.8-.2-1.9 0-3.7 1-4.8 2.3l-2.8 12.7h-5.1zm31-16.8l2.2-9.9h5.1l-5.9 26.7h-5.1l.6-2.4c-1.6 1.9-3.5 2.9-5.8 2.9-4.4 0-7.4-2.9-7.4-8 0-5.8 3.6-12.3 10.2-12.3 2.6 0 4.8 1.1 6.1 3zm-11 8.2c0 2.8 1.8 4.5 4.3 4.5 1.8 0 3.4-1 4.4-2.3l1.5-6.7c-.8-1.3-2.5-2.2-4.5-2.2-3.4 0-5.7 3.2-5.7 6.7zm33.2 8.6l4.8-21.7h-7.8l1.1-5h21.3l-1.1 5h-7.8l-4.8 21.7h-5.7zm13.4-8.3c0-6 4.6-11.5 11.2-11.5 6.2 0 9.6 3.7 9.6 8.8 0 6-4.6 11.5-11.2 11.5-6.2 0-9.6-3.8-9.6-8.8zm15.5-2.5c0-2.8-1.7-4.5-4.5-4.5-3.4 0-5.8 3.2-5.8 6.7 0 2.8 1.7 4.5 4.5 4.5 3.5 0 5.8-3.2 5.8-6.7zm15.9 6.3l3.5-4.2c1.8 2.5 5.3 4.2 9 4.2 2.9 0 4-1.6 4-3 0-3.8-13-3-13-10.8 0-4.4 3.9-8.7 10.4-8.7 4.2 0 8.2 1.6 10.6 4.3l-3.6 4.1c-2-2.3-5.2-3.4-8-3.4-2 0-3.6 1.2-3.6 2.6 0 3.5 13 3 13 10.8 0 4.9-3.9 9.2-10.5 9.2-5-.1-9.6-2.2-11.8-5.1zm25.4.8c0-.2 0-.8.2-1.3l2.2-9.8h-3.2l1-4.4h3.2l1.2-5.3h5.1l-1.2 5.3h3.9l-1 4.4h-3.9l-1.9 8.5v.7c0 1 .6 1.7 1.9 1.7.5 0 1.2-.2 1.4-.4l.2 4.1c-.7.5-1.9.8-3.2.8-3.6-.1-5.9-1.5-5.9-4.3zm11.9-4.6c0-6 4.6-11.5 11.2-11.5 6.2 0 9.6 3.7 9.6 8.8 0 6-4.6 11.5-11.2 11.5-6.2 0-9.6-3.8-9.6-8.8zm15.4-2.5c0-2.8-1.7-4.5-4.5-4.5-3.4 0-5.8 3.2-5.8 6.7 0 2.8 1.7 4.5 4.5 4.5 3.5 0 5.8-3.2 5.8-6.7zm12.1 8.2l-2.2 9.9h-5.1l5.9-26.7h5.1l-.6 2.4c1.6-1.9 3.5-2.9 5.8-2.9 4.4 0 7.3 2.9 7.3 8 0 5.8-3.6 12.3-10.2 12.3-2.5.1-4.7-1.1-6-3zm11-8.2c0-2.8-1.8-4.5-4.3-4.5-1.8 0-3.4 1-4.4 2.3l-1.5 6.7c.8 1.3 2.5 2.2 4.5 2.2 3.4 0 5.7-3.1 5.7-6.7zm35 10.8l-.7-4.5h-11.4l-2.6 4.5h-6.8l16.2-26.7h7.1l4.4 26.7h-6.2zm-2.8-21l-6.7 11.5h8.3l-1.6-11.5zm27.1 21l4.8-21.7H359l1.1-5h21.3l-1.1 5h-7.8l-4.8 21.7H362zm13.9 0l4.3-19.3h5.1l-.6 2.5c1.7-1.8 3.8-3 6.8-3l-1.1 5c-.3-.1-1-.2-1.8-.2-1.9 0-3.7 1-4.8 2.3l-2.8 12.7h-5.1zm25.9 0l.4-2c-1.4 1.5-3.3 2.4-5.8 2.4-3.3 0-6.4-1.8-6.4-5.6 0-4.4 3.3-7 7.2-7 2.8 0 4.9.8 6.6 2.6l.5-2.2c0-.2.1-.6.1-.9 0-1.8-1.9-2.9-4.5-2.9-2 0-3.8.7-5.4 1.8l-1.2-3.7c2.2-1.6 4.9-2.4 7.6-2.4 4.6 0 8.6 1.7 8.6 6.1 0 .4-.1 1.6-.2 2.1l-2.6 11.6-4.9.1zm1-4.6l.5-2.4c-.8-1.1-2.4-1.8-4.4-1.8-2.2 0-3.7 1.4-3.7 3.2 0 1.7 1.4 2.6 3.5 2.6 1.9 0 3.2-.6 4.1-1.6zm21.5 4.6l2.6-11.7c.1-.4.2-.8.2-1.1 0-1.8-1.4-2.4-3.3-2.4-1.7 0-3.4 1.2-4.5 2.2l-2.9 13h-5.1l4.3-19.3h5.1l-.6 2.5c1.5-1.4 3.6-3 6.4-3 3.7 0 6 1.9 6 4.9 0 .4-.1 1.2-.2 1.6l-2.9 13.3h-5.1zm10.4-8.2c0-6.3 4.7-11.6 11.2-11.6 5 0 8.7 3.2 8.7 8.6 0 1.2-.2 2.6-.4 3.2h-14.4v.5c0 1.6 1.7 3.8 5.3 3.8 1.7 0 3.7-.5 4.9-1.4l1.6 3.6c-1.9 1.3-4.4 2-6.8 2-6.1 0-10.1-3.3-10.1-8.7zm15.3-3.3v-.4c0-2-1.4-3.7-4.5-3.7-2.8 0-4.8 2-5.2 4.1h9.7zm4.1 9c0-1.9 1.6-3.5 3.6-3.5 1.6 0 3 1.4 3 3 0 1.9-1.6 3.5-3.6 3.5-1.7 0-3-1.4-3-3zm7.5-13.1c-2.7 0-4.8-2.2-4.8-4.8 0-2.7 2.2-4.8 4.8-4.8 2.7 0 4.8 2.1 4.8 4.8s-2.1 4.8-4.8 4.8zm0-8.8c-2.2 0-4 1.8-4 4s1.8 4 4 4 4.1-1.8 4.1-4c-.1-2.3-1.9-4-4.1-4zm.7 6.8l-1-2.2h-.9l-.5 2.2h-.8l1.2-5.5h2.1c1.1 0 1.7.7 1.7 1.5 0 1-.9 1.9-1.8 1.9l1 2.2-1-.1zm-.1-4.9H461l-.4 1.9h1.4c.8 0 1.2-.5 1.2-1.1 0-.4-.2-.8-1-.8z"/></svg>